# xmcd
#
# Track frame offsets: 
#        200
#        12525
#        26215
#        38792
#        53440
#        69587
#        83847
#        96822
#        112007
#        124657
#        138092
#        152357
#        165695
#        178442
#        193725
#        205797
#        218732
#        233470
#        246985
#        259397
#        271967
#        285020
#
# Disc length: 3972 seconds
#
# Revision: 2
# Processed by: cddbd v1.5.2PL0 Copyright (c) Steve Scherf et al.
# Submitted via: ExactAudioCopyFreeDBPlugin 1.0
#
DISCID=320f8216
DTITLE=Various Artist - Echoes of the Ozarks, Volume One
DYEAR=1995
DGENRE=Old Time Country Music
TTITLE0=Morrison Brothers Band - Dry and Dusty
TTITLE1=Pope's Arkansas Mountaineers - Jaw Bone
TTITLE2=Luke Highnight's Ozark Strutters - Ft. Smith Breakdown
TTITLE3=George Edgin's Corn Dodgers - My Ozark Mountain Home
TTITLE4=Pope's Arkansas Mountaineers - George Washington
TTITLE5=Ted Sharp, Hinman and Sharp - Pike's Peak
TTITLE6=Ashley's Melody Men - Bath House Blues
TTITLE7=Pope's Arkansas Mountaineers - Cotton Eyed Joe
TTITLE8=Fiddlin' Sam Long - Echoes of the Ozarks
TTITLE9=George Edgin's Corn Dodgers - Corn Dodger #1 Special
TTITLE10=Ted Sharp, Hinman and Sharp - Robinson County
TTITLE11=Morrison Brothers Band - Ozark Waltz
TTITLE12=Luke Highnight's Ozark Strutters - Sailing On the Ocean
TTITLE13=Pope's Arkansas Mountaineers - Get Along Home Miss Cindy
TTITLE14=Fiddlin' Sam Long - Sandy Land
TTITLE15=Luke Highnight's Ozark Strutters - Bailey Waltz
TTITLE16=Ted Sharp, Hinman and Sharp - Old Grey Horse
TTITLE17=Pope's Arkansas Mountaineers - Hog Eye
TTITLE18=Fiddlin' Sam Long - Seneca Square Dance
TTITLE19=Luke Highnight's Ozark Strutters - Walk Along John
TTITLE20=Luke Highnight's Ozark Strutters - There's No Hell In Georgia
TTITLE21=Ashley's Melody Men - Searcy County Rag
EXTD=
EXTT0=
EXTT1=
EXTT2=
EXTT3=
EXTT4=
EXTT5=
EXTT6=
EXTT7=
EXTT8=
EXTT9=
EXTT10=
EXTT11=
EXTT12=
EXTT13=
EXTT14=
EXTT15=
EXTT16=
EXTT17=
EXTT18=
EXTT19=
EXTT20=
EXTT21=
PLAYORDER=
